<mxfile host="app.diagrams.net" agent="Mozilla/5.0 (Windows NT 10.0; Win64; x64) AppleWebKit/537.36 (KHTML, like Gecko) Chrome/131.0.0.0 Safari/537.36" version="26.0.4">
  <diagram name="第 1 页" id="KqlrhDnYrobVznJBZlzg">
    <mxGraphModel dx="1376" dy="728" grid="1" gridSize="10" guides="1" tooltips="1" connect="1" arrows="1" fold="1" page="1" pageScale="1" pageWidth="827" pageHeight="1169" math="0" shadow="0">
      <root>
        <mxCell id="0" />
        <mxCell id="1" parent="0" />
        <mxCell id="PqEivThbnZl2Oq-JQeQl-1" value="" style="rounded=0;whiteSpace=wrap;html=1;strokeColor=none;" parent="1" vertex="1">
          <mxGeometry x="30" y="110" width="700" height="710" as="geometry" />
        </mxCell>
        <mxCell id="PqEivThbnZl2Oq-JQeQl-13" value="" style="edgeStyle=orthogonalEdgeStyle;rounded=0;orthogonalLoop=1;jettySize=auto;html=1;entryX=0.5;entryY=0;entryDx=0;entryDy=0;" parent="1" source="PqEivThbnZl2Oq-JQeQl-5" target="PqEivThbnZl2Oq-JQeQl-9" edge="1">
          <mxGeometry relative="1" as="geometry" />
        </mxCell>
        <mxCell id="PqEivThbnZl2Oq-JQeQl-5" value="JDBC、PHP、Python、Net" style="rounded=0;whiteSpace=wrap;html=1;" parent="1" vertex="1">
          <mxGeometry x="130" y="150" width="560" height="40" as="geometry" />
        </mxCell>
        <mxCell id="PqEivThbnZl2Oq-JQeQl-39" value="" style="edgeStyle=orthogonalEdgeStyle;rounded=0;orthogonalLoop=1;jettySize=auto;html=1;entryX=0.5;entryY=0;entryDx=0;entryDy=0;exitX=0.5;exitY=1;exitDx=0;exitDy=0;" parent="1" source="PqEivThbnZl2Oq-JQeQl-9" target="PqEivThbnZl2Oq-JQeQl-28" edge="1">
          <mxGeometry relative="1" as="geometry">
            <mxPoint x="410" y="507" as="sourcePoint" />
            <mxPoint x="770" y="367" as="targetPoint" />
          </mxGeometry>
        </mxCell>
        <mxCell id="PqEivThbnZl2Oq-JQeQl-9" value="&lt;span style=&quot;color: rgba(0, 0, 0, 0); font-family: monospace; font-size: 0px; text-align: start; text-wrap-mode: nowrap;&quot;&gt;%3CmxGraphModel%3E%3Croot%3E%3CmxCell%20id%3D%220%22%2F%3E%3CmxCell%20id%3D%221%22%20parent%3D%220%22%2F%3E%3CmxCell%20id%3D%222%22%20value%3D%22%E5%AE%A2%E6%88%B7%E7%AB%AF%22%20style%3D%22text%3Bhtml%3D1%3Balign%3Dcenter%3BverticalAlign%3Dmiddle%3BwhiteSpace%3Dwrap%3Brounded%3D1%3B%22%20vertex%3D%221%22%20parent%3D%221%22%3E%3CmxGeometry%20x%3D%2260%22%20y%3D%22155%22%20width%3D%2260%22%20height%3D%2230%22%20as%3D%22geometry%22%2F%3E%3C%2FmxCell%3E%3C%2Froot%3E%3C%2FmxGraphModel%3E&lt;/span&gt;" style="rounded=0;whiteSpace=wrap;html=1;" parent="1" vertex="1">
          <mxGeometry x="130" y="230" width="560" height="260" as="geometry" />
        </mxCell>
        <mxCell id="PqEivThbnZl2Oq-JQeQl-12" value="" style="edgeStyle=orthogonalEdgeStyle;rounded=0;orthogonalLoop=1;jettySize=auto;html=1;" parent="1" source="PqEivThbnZl2Oq-JQeQl-10" target="PqEivThbnZl2Oq-JQeQl-11" edge="1">
          <mxGeometry relative="1" as="geometry">
            <Array as="points">
              <mxPoint x="410" y="310" />
              <mxPoint x="240" y="310" />
            </Array>
          </mxGeometry>
        </mxCell>
        <mxCell id="PqEivThbnZl2Oq-JQeQl-17" value="" style="edgeStyle=orthogonalEdgeStyle;rounded=0;orthogonalLoop=1;jettySize=auto;html=1;" parent="1" source="PqEivThbnZl2Oq-JQeQl-10" target="PqEivThbnZl2Oq-JQeQl-16" edge="1">
          <mxGeometry relative="1" as="geometry" />
        </mxCell>
        <mxCell id="PqEivThbnZl2Oq-JQeQl-10" value="连接器" style="rounded=1;whiteSpace=wrap;html=1;fillColor=#dae8fc;strokeColor=#6c8ebf;" parent="1" vertex="1">
          <mxGeometry x="360" y="239" width="100" height="50" as="geometry" />
        </mxCell>
        <mxCell id="PqEivThbnZl2Oq-JQeQl-53" value="" style="edgeStyle=orthogonalEdgeStyle;rounded=0;orthogonalLoop=1;jettySize=auto;html=1;entryX=0;entryY=0.5;entryDx=0;entryDy=0;" parent="1" source="PqEivThbnZl2Oq-JQeQl-11" target="PqEivThbnZl2Oq-JQeQl-16" edge="1">
          <mxGeometry relative="1" as="geometry">
            <mxPoint x="370" y="355" as="targetPoint" />
          </mxGeometry>
        </mxCell>
        <mxCell id="PqEivThbnZl2Oq-JQeQl-11" value="缓冲池&lt;div&gt;查询缓存&lt;/div&gt;" style="rounded=1;whiteSpace=wrap;html=1;fillColor=#e1d5e7;strokeColor=#9673a6;" parent="1" vertex="1">
          <mxGeometry x="190" y="330" width="100" height="50" as="geometry" />
        </mxCell>
        <mxCell id="PqEivThbnZl2Oq-JQeQl-20" value="" style="edgeStyle=orthogonalEdgeStyle;rounded=0;orthogonalLoop=1;jettySize=auto;html=1;" parent="1" source="PqEivThbnZl2Oq-JQeQl-16" target="PqEivThbnZl2Oq-JQeQl-19" edge="1">
          <mxGeometry relative="1" as="geometry" />
        </mxCell>
        <mxCell id="PqEivThbnZl2Oq-JQeQl-16" value="解析器" style="rounded=1;whiteSpace=wrap;html=1;fillColor=#d5e8d4;strokeColor=#82b366;" parent="1" vertex="1">
          <mxGeometry x="430" y="330" width="100" height="50" as="geometry" />
        </mxCell>
        <mxCell id="PqEivThbnZl2Oq-JQeQl-22" value="" style="edgeStyle=orthogonalEdgeStyle;rounded=0;orthogonalLoop=1;jettySize=auto;html=1;" parent="1" source="PqEivThbnZl2Oq-JQeQl-19" target="PqEivThbnZl2Oq-JQeQl-21" edge="1">
          <mxGeometry relative="1" as="geometry" />
        </mxCell>
        <mxCell id="PqEivThbnZl2Oq-JQeQl-19" value="预处理器" style="rounded=1;whiteSpace=wrap;html=1;fillColor=#d5e8d4;strokeColor=#82b366;" parent="1" vertex="1">
          <mxGeometry x="570" y="330" width="100" height="50" as="geometry" />
        </mxCell>
        <mxCell id="PqEivThbnZl2Oq-JQeQl-24" value="" style="edgeStyle=orthogonalEdgeStyle;rounded=0;orthogonalLoop=1;jettySize=auto;html=1;" parent="1" source="PqEivThbnZl2Oq-JQeQl-21" target="PqEivThbnZl2Oq-JQeQl-23" edge="1">
          <mxGeometry relative="1" as="geometry" />
        </mxCell>
        <mxCell id="PqEivThbnZl2Oq-JQeQl-21" value="优化器" style="rounded=1;whiteSpace=wrap;html=1;fillColor=#ffe6cc;strokeColor=#d79b00;" parent="1" vertex="1">
          <mxGeometry x="570" y="420" width="100" height="50" as="geometry" />
        </mxCell>
        <mxCell id="PqEivThbnZl2Oq-JQeQl-23" value="执行器" style="rounded=1;whiteSpace=wrap;html=1;fillColor=#ffe6cc;strokeColor=#d79b00;" parent="1" vertex="1">
          <mxGeometry x="430" y="420" width="100" height="50" as="geometry" />
        </mxCell>
        <mxCell id="PqEivThbnZl2Oq-JQeQl-25" value="客户端" style="text;html=1;align=center;verticalAlign=middle;whiteSpace=wrap;rounded=1;fillColor=#dae8fc;strokeColor=#6c8ebf;" parent="1" vertex="1">
          <mxGeometry x="60" y="155" width="60" height="30" as="geometry" />
        </mxCell>
        <mxCell id="PqEivThbnZl2Oq-JQeQl-26" value="服务层" style="text;html=1;align=center;verticalAlign=middle;whiteSpace=wrap;rounded=1;fillColor=#d5e8d4;strokeColor=#82b366;" parent="1" vertex="1">
          <mxGeometry x="60" y="340" width="60" height="30" as="geometry" />
        </mxCell>
        <mxCell id="PqEivThbnZl2Oq-JQeQl-27" value="服务层" style="text;html=1;align=center;verticalAlign=middle;whiteSpace=wrap;rounded=1;fillColor=#ffe6cc;strokeColor=#d79b00;" parent="1" vertex="1">
          <mxGeometry x="60" y="563" width="60" height="30" as="geometry" />
        </mxCell>
        <mxCell id="PqEivThbnZl2Oq-JQeQl-54" value="" style="edgeStyle=orthogonalEdgeStyle;rounded=0;orthogonalLoop=1;jettySize=auto;html=1;entryX=0.5;entryY=0;entryDx=0;entryDy=0;" parent="1" source="PqEivThbnZl2Oq-JQeQl-28" target="PqEivThbnZl2Oq-JQeQl-45" edge="1">
          <mxGeometry relative="1" as="geometry" />
        </mxCell>
        <mxCell id="PqEivThbnZl2Oq-JQeQl-28" value="" style="rounded=0;whiteSpace=wrap;html=1;" parent="1" vertex="1">
          <mxGeometry x="130" y="527" width="560" height="100" as="geometry" />
        </mxCell>
        <mxCell id="PqEivThbnZl2Oq-JQeQl-30" value="InnoDB" style="shape=cylinder3;whiteSpace=wrap;html=1;boundedLbl=1;backgroundOutline=1;size=15;fillColor=#dae8fc;strokeColor=#6c8ebf;" parent="1" vertex="1">
          <mxGeometry x="240" y="538" width="60" height="80" as="geometry" />
        </mxCell>
        <mxCell id="PqEivThbnZl2Oq-JQeQl-32" value="MyISAM" style="shape=cylinder3;whiteSpace=wrap;html=1;boundedLbl=1;backgroundOutline=1;size=15;fillColor=#ffe6cc;strokeColor=#d79b00;" parent="1" vertex="1">
          <mxGeometry x="370" y="538" width="60" height="80" as="geometry" />
        </mxCell>
        <mxCell id="PqEivThbnZl2Oq-JQeQl-33" value="Memory" style="shape=cylinder3;whiteSpace=wrap;html=1;boundedLbl=1;backgroundOutline=1;size=15;fillColor=#f8cecc;strokeColor=#b85450;" parent="1" vertex="1">
          <mxGeometry x="500" y="538" width="60" height="80" as="geometry" />
        </mxCell>
        <mxCell id="PqEivThbnZl2Oq-JQeQl-44" value="服务层" style="text;html=1;align=center;verticalAlign=middle;whiteSpace=wrap;rounded=0;fillColor=#f8cecc;strokeColor=#b85450;" parent="1" vertex="1">
          <mxGeometry x="60" y="706" width="60" height="30" as="geometry" />
        </mxCell>
        <mxCell id="PqEivThbnZl2Oq-JQeQl-45" value="" style="rounded=0;whiteSpace=wrap;html=1;" parent="1" vertex="1">
          <mxGeometry x="130" y="670" width="560" height="100" as="geometry" />
        </mxCell>
        <mxCell id="PqEivThbnZl2Oq-JQeQl-46" value="数据" style="shape=cylinder3;whiteSpace=wrap;html=1;boundedLbl=1;backgroundOutline=1;size=15;fillColor=#dae8fc;strokeColor=#6c8ebf;" parent="1" vertex="1">
          <mxGeometry x="240" y="681" width="60" height="80" as="geometry" />
        </mxCell>
        <mxCell id="PqEivThbnZl2Oq-JQeQl-47" value="日志" style="shape=cylinder3;whiteSpace=wrap;html=1;boundedLbl=1;backgroundOutline=1;size=15;fillColor=#fff2cc;strokeColor=#d6b656;" parent="1" vertex="1">
          <mxGeometry x="370" y="681" width="60" height="80" as="geometry" />
        </mxCell>
        <mxCell id="PqEivThbnZl2Oq-JQeQl-48" value="索引" style="shape=cylinder3;whiteSpace=wrap;html=1;boundedLbl=1;backgroundOutline=1;size=15;fillColor=#f8cecc;strokeColor=#b85450;" parent="1" vertex="1">
          <mxGeometry x="500" y="681" width="60" height="80" as="geometry" />
        </mxCell>
        <mxCell id="PqEivThbnZl2Oq-JQeQl-55" value="查询不到" style="text;html=1;align=center;verticalAlign=middle;resizable=0;points=[];autosize=1;strokeColor=none;fillColor=none;" parent="1" vertex="1">
          <mxGeometry x="330" y="350" width="70" height="30" as="geometry" />
        </mxCell>
      </root>
    </mxGraphModel>
  </diagram>
</mxfile>
